<?xml version="1.0" encoding="UTF-8"?>
<svg id="Ebene_1" data-name="Ebene 1" xmlns="http://www.w3.org/2000/svg" xmlns:xlink="http://www.w3.org/1999/xlink" viewBox="0 0 612 792">
  <defs>
    <style>
      .cls-1 {
        letter-spacing: -.02em;
      }

      .cls-2, .cls-3, .cls-4 {
        font-size: 9px;
      }

      .cls-2, .cls-3, .cls-4, .cls-5, .cls-6 {
        font-family: Helvetica, Helvetica;
      }

      .cls-7 {
        stroke: #000;
        stroke-width: .71px;
      }

      .cls-7, .cls-8, .cls-9, .cls-10, .cls-11, .cls-12, .cls-13 {
        fill: none;
      }

      .cls-7, .cls-8, .cls-10, .cls-11, .cls-12, .cls-13 {
        stroke-linejoin: round;
      }

      .cls-7, .cls-13 {
        stroke-linecap: round;
      }

      .cls-8 {
        stroke: #3f61aa;
        stroke-width: 2.13px;
      }

      .cls-14 {
        clip-path: url(#clippath);
      }

      .cls-9, .cls-15, .cls-16, .cls-17, .cls-18 {
        stroke-width: 0px;
      }

      .cls-19 {
        letter-spacing: -.03em;
      }

      .cls-20 {
        letter-spacing: -.03em;
      }

      .cls-21 {
        letter-spacing: -.12em;
      }

      .cls-10, .cls-11, .cls-13 {
        stroke-width: 1.07px;
      }

      .cls-10, .cls-13 {
        stroke: #333;
      }

      .cls-11, .cls-12 {
        stroke: #ecebeb;
      }

      .cls-22 {
        letter-spacing: -.03em;
      }

      .cls-23 {
        clip-path: url(#clippath-1);
      }

      .cls-24 {
        clip-path: url(#clippath-2);
      }

      .cls-25 {
        clip-path: url(#clippath-6);
      }

      .cls-3 {
        fill: #4e4d4d;
      }

      .cls-4 {
        fill: #1a1a1a;
      }

      .cls-15 {
        fill: #999;
        opacity: .4;
      }

      .cls-5 {
        fill: #1d1d1b;
        font-size: 10px;
      }

      .cls-6 {
        font-size: 11px;
      }

      .cls-26 {
        letter-spacing: 0em;
      }

      .cls-12 {
        stroke-width: .53px;
      }

      .cls-17 {
        fill: #d9d9d9;
      }

      .cls-18 {
        fill: #fff;
      }

      .cls-27 {
        font-family: Helvetica-Bold, Helvetica;
        font-size: 13.07px;
        font-weight: 700;
      }
    </style>
    <clipPath id="clippath">
      <rect class="cls-9" x="72.97" y="26.11" width="150.31" height="219.48"/>
    </clipPath>
    <clipPath id="clippath-1">
      <rect class="cls-9" x="243.7" y="26.11" width="150.31" height="219.48"/>
    </clipPath>
    <clipPath id="clippath-2">
      <rect class="cls-9" x="72.97" y="8.9" width="150.31" height="17.21"/>
    </clipPath>
    <clipPath id="clippath-6">
      <rect class="cls-9" x="243.7" y="8.9" width="150.31" height="17.21"/>
    </clipPath>
  </defs>
  <text class="cls-27" transform="translate(2.83 14.66)"><tspan x="0" y="0">A</tspan></text>
  <g class="cls-14">
    <rect class="cls-18" x="72.97" y="26.11" width="150.31" height="219.48"/>
    <line class="cls-12" x1="72.97" y1="215.82" x2="223.28" y2="215.82"/>
    <line class="cls-12" x1="72.97" y1="176.25" x2="223.28" y2="176.25"/>
    <line class="cls-12" x1="72.97" y1="136.67" x2="223.28" y2="136.67"/>
    <line class="cls-12" x1="72.97" y1="97.1" x2="223.28" y2="97.1"/>
    <line class="cls-12" x1="72.97" y1="57.52" x2="223.28" y2="57.52"/>
    <line class="cls-12" x1="96.88" y1="245.59" x2="96.88" y2="26.11"/>
    <line class="cls-12" x1="131.04" y1="245.59" x2="131.04" y2="26.11"/>
    <line class="cls-12" x1="165.2" y1="245.59" x2="165.2" y2="26.11"/>
    <line class="cls-12" x1="199.37" y1="245.59" x2="199.37" y2="26.11"/>
    <line class="cls-11" x1="72.97" y1="235.61" x2="223.28" y2="235.61"/>
    <line class="cls-11" x1="72.97" y1="196.04" x2="223.28" y2="196.04"/>
    <line class="cls-11" x1="72.97" y1="156.46" x2="223.28" y2="156.46"/>
    <line class="cls-11" x1="72.97" y1="116.88" x2="223.28" y2="116.88"/>
    <line class="cls-11" x1="72.97" y1="77.31" x2="223.28" y2="77.31"/>
    <line class="cls-11" x1="72.97" y1="37.73" x2="223.28" y2="37.73"/>
    <line class="cls-11" x1="79.8" y1="245.59" x2="79.8" y2="26.11"/>
    <line class="cls-11" x1="113.96" y1="245.59" x2="113.96" y2="26.11"/>
    <line class="cls-11" x1="148.12" y1="245.59" x2="148.12" y2="26.11"/>
    <line class="cls-11" x1="182.28" y1="245.59" x2="182.28" y2="26.11"/>
    <line class="cls-11" x1="216.45" y1="245.59" x2="216.45" y2="26.11"/>
    <path class="cls-16" d="M94.24,36.08c0-1.07.88-1.95,1.96-1.95s1.95.88,1.95,1.95-.88,1.96-1.95,1.96-1.96-.88-1.96-1.96"/>
    <path class="cls-7" d="M94.24,36.08c0-1.07.88-1.95,1.96-1.95s1.95.88,1.95,1.95-.88,1.96-1.95,1.96-1.96-.88-1.96-1.96"/>
    <path class="cls-16" d="M113.37,115.63c0-1.07.88-1.95,1.96-1.95s1.95.88,1.95,1.95-.88,1.96-1.95,1.96-1.96-.88-1.96-1.96"/>
    <path class="cls-7" d="M113.37,115.63c0-1.07.88-1.95,1.96-1.95s1.95.88,1.95,1.95-.88,1.96-1.95,1.96-1.96-.88-1.96-1.96"/>
    <path class="cls-16" d="M113.37,141.47c0-1.07.88-1.95,1.96-1.95s1.95.88,1.95,1.95-.88,1.96-1.95,1.96-1.96-.88-1.96-1.96"/>
    <path class="cls-7" d="M113.37,141.47c0-1.07.88-1.95,1.96-1.95s1.95.88,1.95,1.95-.88,1.96-1.95,1.96-1.96-.88-1.96-1.96"/>
    <path class="cls-16" d="M101.07,150.94c0-1.07.88-1.95,1.96-1.95s1.95.88,1.95,1.95-.88,1.96-1.95,1.96-1.96-.88-1.96-1.96"/>
    <path class="cls-7" d="M101.07,150.94c0-1.07.88-1.95,1.96-1.95s1.95.88,1.95,1.95-.88,1.96-1.95,1.96-1.96-.88-1.96-1.96"/>
    <path class="cls-16" d="M113.37,161.64c0-1.07.88-1.95,1.96-1.95s1.95.88,1.95,1.95-.88,1.96-1.95,1.96-1.96-.88-1.96-1.96"/>
    <path class="cls-7" d="M113.37,161.64c0-1.07.88-1.95,1.96-1.95s1.95.88,1.95,1.95-.88,1.96-1.95,1.96-1.96-.88-1.96-1.96"/>
    <path class="cls-16" d="M122.94,176.34c0-1.07.88-1.95,1.95-1.95s1.96.88,1.96,1.95-.88,1.96-1.96,1.96-1.95-.88-1.95-1.96"/>
    <path class="cls-7" d="M122.94,176.34c0-1.07.88-1.95,1.95-1.95s1.96.88,1.96,1.95-.88,1.96-1.96,1.96-1.95-.88-1.95-1.96"/>
    <path class="cls-16" d="M98.34,183.5c0-1.07.88-1.95,1.96-1.95s1.95.88,1.95,1.95-.88,1.96-1.95,1.96-1.96-.88-1.96-1.96"/>
    <path class="cls-7" d="M98.34,183.5c0-1.07.88-1.95,1.96-1.95s1.95.88,1.95,1.95-.88,1.96-1.95,1.96-1.96-.88-1.96-1.96"/>
    <path class="cls-16" d="M91.51,185.83c0-1.08.88-1.96,1.95-1.96s1.96.88,1.96,1.96-.88,1.95-1.96,1.95-1.95-.88-1.95-1.95"/>
    <path class="cls-7" d="M91.51,185.83c0-1.08.88-1.96,1.95-1.96s1.96.88,1.96,1.96-.88,1.95-1.96,1.95-1.95-.88-1.95-1.95"/>
    <path class="cls-16" d="M101.07,187.36c0-1.08.88-1.96,1.96-1.96s1.95.88,1.95,1.96-.88,1.95-1.95,1.95-1.96-.88-1.96-1.95"/>
    <path class="cls-7" d="M101.07,187.36c0-1.08.88-1.96,1.96-1.96s1.95.88,1.95,1.96-.88,1.95-1.95,1.95-1.96-.88-1.96-1.95"/>
    <path class="cls-16" d="M122.94,188.86c0-1.08.88-1.96,1.95-1.96s1.96.88,1.96,1.96-.88,1.95-1.96,1.95-1.95-.88-1.95-1.95"/>
    <path class="cls-7" d="M122.94,188.86c0-1.08.88-1.96,1.95-1.96s1.96.88,1.96,1.96-.88,1.95-1.96,1.95-1.95-.88-1.95-1.95"/>
    <path class="cls-16" d="M99.71,190.96c0-1.07.88-1.95,1.95-1.95s1.96.88,1.96,1.95-.88,1.96-1.96,1.96-1.95-.88-1.95-1.96"/>
    <path class="cls-7" d="M99.71,190.96c0-1.07.88-1.95,1.95-1.95s1.96.88,1.96,1.95-.88,1.96-1.96,1.96-1.95-.88-1.95-1.96"/>
    <path class="cls-16" d="M142.07,193.06c0-1.08.88-1.96,1.95-1.96s1.96.88,1.96,1.96-.88,1.95-1.96,1.95-1.95-.88-1.95-1.95"/>
    <path class="cls-7" d="M142.07,193.06c0-1.08.88-1.96,1.95-1.96s1.96.88,1.96,1.96-.88,1.95-1.96,1.95-1.95-.88-1.95-1.95"/>
    <path class="cls-16" d="M159.83,214.28c0-1.08.88-1.96,1.96-1.96s1.95.88,1.95,1.96-.88,1.95-1.95,1.95-1.96-.88-1.96-1.95"/>
    <path class="cls-7" d="M159.83,214.28c0-1.08.88-1.96,1.96-1.96s1.95.88,1.95,1.96-.88,1.95-1.95,1.95-1.96-.88-1.96-1.95"/>
    <path class="cls-16" d="M95.61,215.6c0-1.07.88-1.95,1.95-1.95s1.96.88,1.96,1.95-.88,1.96-1.96,1.96-1.95-.88-1.95-1.96"/>
    <path class="cls-7" d="M95.61,215.6c0-1.07.88-1.95,1.95-1.95s1.96.88,1.96,1.95-.88,1.96-1.96,1.96-1.95-.88-1.95-1.96"/>
    <path class="cls-16" d="M143.44,216.75c0-1.07.87-1.95,1.95-1.95s1.95.88,1.95,1.95-.87,1.96-1.95,1.96-1.95-.88-1.95-1.96"/>
    <path class="cls-7" d="M143.44,216.75c0-1.07.87-1.95,1.95-1.95s1.95.88,1.95,1.95-.87,1.96-1.95,1.96-1.95-.88-1.95-1.96"/>
    <path class="cls-16" d="M125.67,220.66c0-1.08.88-1.96,1.96-1.96s1.95.88,1.95,1.96-.88,1.95-1.95,1.95-1.96-.88-1.96-1.95"/>
    <path class="cls-7" d="M125.67,220.66c0-1.08.88-1.96,1.96-1.96s1.95.88,1.95,1.96-.88,1.95-1.95,1.95-1.96-.88-1.96-1.95"/>
    <path class="cls-16" d="M128.4,222.9c0-1.07.88-1.95,1.96-1.95s1.95.88,1.95,1.95-.88,1.96-1.95,1.96-1.96-.88-1.96-1.96"/>
    <path class="cls-7" d="M128.4,222.9c0-1.07.88-1.95,1.96-1.95s1.95.88,1.95,1.95-.88,1.96-1.95,1.96-1.96-.88-1.96-1.96"/>
    <path class="cls-16" d="M106.54,223.34c0-1.07.88-1.95,1.96-1.95s1.95.88,1.95,1.95-.88,1.96-1.95,1.96-1.96-.88-1.96-1.96"/>
    <path class="cls-7" d="M106.54,223.34c0-1.07.88-1.95,1.96-1.95s1.95.88,1.95,1.95-.88,1.96-1.95,1.96-1.96-.88-1.96-1.96"/>
    <path class="cls-16" d="M107.91,224.14c0-1.08.88-1.96,1.95-1.96s1.96.88,1.96,1.96-.88,1.95-1.96,1.95-1.95-.88-1.95-1.95"/>
    <path class="cls-7" d="M107.91,224.14c0-1.08.88-1.96,1.95-1.96s1.96.88,1.96,1.96-.88,1.95-1.96,1.95-1.95-.88-1.95-1.95"/>
    <path class="cls-16" d="M178.96,225.28c0-1.08.88-1.95,1.96-1.95s1.95.87,1.95,1.95-.88,1.95-1.95,1.95-1.96-.88-1.96-1.95"/>
    <path class="cls-7" d="M178.96,225.28c0-1.08.88-1.95,1.96-1.95s1.95.87,1.95,1.95-.88,1.95-1.95,1.95-1.96-.88-1.96-1.95"/>
    <path class="cls-16" d="M132.5,227.66c0-1.08.88-1.96,1.96-1.96s1.95.88,1.95,1.96-.88,1.95-1.95,1.95-1.96-.88-1.96-1.95"/>
    <path class="cls-7" d="M132.5,227.66c0-1.08.88-1.96,1.96-1.96s1.95.88,1.95,1.96-.88,1.95-1.95,1.95-1.96-.88-1.96-1.95"/>
    <path class="cls-16" d="M95.61,229.75c0-1.07.88-1.95,1.95-1.95s1.96.88,1.96,1.95-.88,1.96-1.96,1.96-1.95-.88-1.95-1.96"/>
    <path class="cls-7" d="M95.61,229.75c0-1.07.88-1.95,1.95-1.95s1.96.88,1.96,1.95-.88,1.96-1.96,1.96-1.95-.88-1.95-1.96"/>
    <path class="cls-16" d="M96.97,232.42c0-1.08.88-1.96,1.96-1.96s1.95.88,1.95,1.96-.88,1.95-1.95,1.95-1.96-.88-1.96-1.95"/>
    <path class="cls-7" d="M96.97,232.42c0-1.08.88-1.96,1.96-1.96s1.95.88,1.95,1.96-.88,1.95-1.95,1.95-1.96-.88-1.96-1.95"/>
    <path class="cls-16" d="M129.77,233.62c0-1.07.88-1.95,1.96-1.95s1.95.88,1.95,1.95-.88,1.96-1.95,1.96-1.96-.88-1.96-1.96"/>
    <path class="cls-7" d="M129.77,233.62c0-1.07.88-1.95,1.96-1.95s1.95.88,1.95,1.95-.88,1.96-1.95,1.96-1.96-.88-1.96-1.96"/>
    <path class="cls-16" d="M277.35,235.33c0-1.08.88-1.96,1.95-1.96s1.96.88,1.96,1.96-.88,1.95-1.96,1.95-1.95-.88-1.95-1.95"/>
    <path class="cls-7" d="M277.35,235.33c0-1.08.88-1.96,1.95-1.96s1.96.88,1.96,1.96-.88,1.95-1.96,1.95-1.95-.88-1.95-1.95"/>
    <polygon class="cls-15" points="93.46 156.66 95.82 158.31 98.17 159.93 100.52 161.51 102.87 163.05 105.23 164.54 107.58 165.99 109.93 167.39 112.28 168.73 114.64 170.01 116.99 171.23 119.34 172.39 121.69 173.48 124.05 174.5 126.4 175.45 128.75 176.34 131.1 177.15 133.45 177.9 135.81 178.58 138.16 179.2 140.51 179.76 142.86 180.26 145.22 180.71 147.57 181.11 149.92 181.47 152.27 181.78 154.63 182.06 156.98 182.3 159.33 182.51 161.68 182.69 164.04 182.84 164.04 234.49 161.68 232.76 159.33 231.06 156.98 229.39 154.63 227.76 152.27 226.15 149.92 224.59 147.57 223.06 145.22 221.59 142.86 220.16 140.51 218.78 138.16 217.46 135.81 216.2 133.45 215 131.1 213.87 128.75 212.81 126.4 211.81 124.05 210.88 121.69 210.03 119.34 209.24 116.99 208.52 114.64 207.86 112.28 207.26 109.93 206.72 107.58 206.24 105.23 205.81 102.87 205.43 100.52 205.09 98.17 204.79 95.82 204.52 93.46 204.29 93.46 156.66"/>
    <polyline class="cls-8" points="93.46 180.48 95.82 181.42 98.17 182.36 100.52 183.3 102.87 184.24 105.23 185.18 107.58 186.12 109.93 187.06 112.28 187.99 114.64 188.93 116.99 189.87 119.34 190.81 121.69 191.75 124.05 192.69 126.4 193.63 128.75 194.57 131.1 195.51 133.45 196.45 135.81 197.39 138.16 198.33 140.51 199.27 142.86 200.21 145.22 201.15 147.57 202.09 149.92 203.03 152.27 203.97 154.63 204.91 156.98 205.85 159.33 206.78 161.68 207.72 164.04 208.66 166.39 209.6 168.74 210.54 171.09 211.48 173.45 212.42 175.8 213.36 178.15 214.3 180.5 215.24 182.86 216.18 185.21 217.12 187.56 218.06 189.91 219 192.27 219.94 194.62 220.88 196.97 221.82 199.32 222.76 201.67 223.7 204.03 224.63 206.38 225.57 208.73 226.51 211.08 227.45 213.44 228.39 215.79 229.33 218.14 230.27 220.49 231.21 222.85 232.15 225.2 233.09 227.55 234.03 229.9 234.97"/>
    <rect class="cls-13" x="72.97" y="26.11" width="150.31" height="219.48"/>
  </g>
  <g class="cls-23">
    <rect class="cls-18" x="243.7" y="26.11" width="150.31" height="219.48"/>
    <line class="cls-12" x1="243.7" y1="203.46" x2="394.01" y2="203.46"/>
    <line class="cls-12" x1="243.7" y1="139.15" x2="394.01" y2="139.15"/>
    <line class="cls-12" x1="243.7" y1="74.85" x2="394.01" y2="74.85"/>
    <line class="cls-12" x1="267.61" y1="245.59" x2="267.61" y2="26.11"/>
    <line class="cls-12" x1="301.77" y1="245.59" x2="301.77" y2="26.11"/>
    <line class="cls-12" x1="335.94" y1="245.59" x2="335.94" y2="26.11"/>
    <line class="cls-12" x1="370.1" y1="245.59" x2="370.1" y2="26.11"/>
    <line class="cls-11" x1="243.7" y1="235.61" x2="394.01" y2="235.61"/>
    <line class="cls-11" x1="243.7" y1="171.31" x2="394.01" y2="171.31"/>
    <line class="cls-11" x1="243.7" y1="107" x2="394.01" y2="107"/>
    <line class="cls-11" x1="243.7" y1="42.69" x2="394.01" y2="42.69"/>
    <line class="cls-11" x1="250.53" y1="245.59" x2="250.53" y2="26.11"/>
    <line class="cls-11" x1="284.69" y1="245.59" x2="284.69" y2="26.11"/>
    <line class="cls-11" x1="318.85" y1="245.59" x2="318.85" y2="26.11"/>
    <line class="cls-11" x1="353.02" y1="245.59" x2="353.02" y2="26.11"/>
    <line class="cls-11" x1="387.18" y1="245.59" x2="387.18" y2="26.11"/>
    <path class="cls-16" d="M284.1,36.08c0-1.07.88-1.95,1.96-1.95s1.95.88,1.95,1.95-.88,1.96-1.95,1.96-1.96-.88-1.96-1.96"/>
    <path class="cls-7" d="M284.1,36.08c0-1.07.88-1.95,1.96-1.95s1.95.88,1.95,1.95-.88,1.96-1.95,1.96-1.96-.88-1.96-1.96"/>
    <path class="cls-16" d="M293.67,65.79c0-1.08.88-1.96,1.95-1.96s1.96.88,1.96,1.96-.88,1.95-1.96,1.95-1.95-.88-1.95-1.95"/>
    <path class="cls-7" d="M293.67,65.79c0-1.08.88-1.96,1.95-1.96s1.96.88,1.96,1.96-.88,1.95-1.96,1.95-1.95-.88-1.95-1.95"/>
    <path class="cls-16" d="M266.34,82.15c0-1.07.88-1.95,1.95-1.95s1.96.88,1.96,1.95-.88,1.96-1.96,1.96-1.95-.88-1.95-1.96"/>
    <path class="cls-7" d="M266.34,82.15c0-1.07.88-1.95,1.95-1.95s1.96.88,1.96,1.95-.88,1.96-1.96,1.96-1.95-.88-1.95-1.96"/>
    <path class="cls-16" d="M262.24,102.84c0-1.07.88-1.95,1.96-1.95s1.95.88,1.95,1.95-.88,1.96-1.95,1.96-1.96-.88-1.96-1.96"/>
    <path class="cls-7" d="M262.24,102.84c0-1.07.88-1.95,1.96-1.95s1.95.88,1.95,1.95-.88,1.96-1.95,1.96-1.96-.88-1.96-1.96"/>
    <path class="cls-16" d="M271.81,122.45c0-1.08.88-1.96,1.95-1.96s1.96.88,1.96,1.96-.88,1.95-1.96,1.95-1.95-.88-1.95-1.95"/>
    <path class="cls-7" d="M271.81,122.45c0-1.08.88-1.96,1.95-1.96s1.96.88,1.96,1.96-.88,1.95-1.96,1.95-1.95-.88-1.95-1.95"/>
    <path class="cls-16" d="M264.97,126.49c0-1.07.88-1.95,1.96-1.95s1.95.88,1.95,1.95-.88,1.96-1.95,1.96-1.96-.88-1.96-1.96"/>
    <path class="cls-7" d="M264.97,126.49c0-1.07.88-1.95,1.96-1.95s1.95.88,1.95,1.95-.88,1.96-1.95,1.96-1.96-.88-1.96-1.96"/>
    <path class="cls-16" d="M284.1,132.54c0-1.08.88-1.96,1.96-1.96s1.95.88,1.95,1.96-.88,1.95-1.95,1.95-1.96-.88-1.96-1.95"/>
    <path class="cls-7" d="M284.1,132.54c0-1.08.88-1.96,1.96-1.96s1.95.88,1.95,1.96-.88,1.95-1.95,1.95-1.96-.88-1.96-1.95"/>
    <path class="cls-16" d="M284.1,139.16c0-1.08.88-1.96,1.96-1.96s1.95.88,1.95,1.96-.88,1.95-1.95,1.95-1.96-.88-1.96-1.95"/>
    <path class="cls-7" d="M284.1,139.16c0-1.08.88-1.96,1.96-1.96s1.95.88,1.95,1.96-.88,1.95-1.95,1.95-1.96-.88-1.96-1.95"/>
    <path class="cls-16" d="M293.67,139.21c0-1.07.88-1.95,1.95-1.95s1.96.88,1.96,1.95-.88,1.96-1.96,1.96-1.95-.88-1.95-1.96"/>
    <path class="cls-7" d="M293.67,139.21c0-1.07.88-1.95,1.95-1.95s1.96.88,1.96,1.95-.88,1.96-1.96,1.96-1.95-.88-1.95-1.96"/>
    <path class="cls-16" d="M270.44,148.06c0-1.08.88-1.96,1.95-1.96s1.96.88,1.96,1.96-.88,1.95-1.96,1.95-1.95-.88-1.95-1.95"/>
    <path class="cls-7" d="M270.44,148.06c0-1.08.88-1.96,1.95-1.96s1.96.88,1.96,1.96-.88,1.95-1.96,1.95-1.95-.88-1.95-1.95"/>
    <path class="cls-16" d="M269.07,148.68c0-1.07.88-1.95,1.96-1.95s1.95.88,1.95,1.95-.88,1.96-1.95,1.96-1.96-.88-1.96-1.96"/>
    <path class="cls-7" d="M269.07,148.68c0-1.07.88-1.95,1.96-1.95s1.95.88,1.95,1.95-.88,1.96-1.95,1.96-1.96-.88-1.96-1.96"/>
    <path class="cls-16" d="M278.64,157.24c0-1.08.88-1.96,1.95-1.96s1.96.88,1.96,1.96-.88,1.95-1.96,1.95-1.95-.88-1.95-1.95"/>
    <path class="cls-7" d="M278.64,157.24c0-1.08.88-1.96,1.95-1.96s1.96.88,1.96,1.96-.88,1.95-1.96,1.95-1.95-.88-1.95-1.95"/>
    <path class="cls-16" d="M271.81,166.85c0-1.08.88-1.96,1.95-1.96s1.96.88,1.96,1.96-.88,1.95-1.96,1.95-1.95-.88-1.95-1.95"/>
    <path class="cls-7" d="M271.81,166.85c0-1.08.88-1.96,1.95-1.96s1.96.88,1.96,1.96-.88,1.95-1.96,1.95-1.95-.88-1.95-1.95"/>
    <path class="cls-16" d="M330.56,171.64c0-1.08.88-1.96,1.96-1.96s1.95.88,1.95,1.96-.88,1.95-1.95,1.95-1.96-.88-1.96-1.95"/>
    <path class="cls-7" d="M330.56,171.64c0-1.08.88-1.96,1.96-1.96s1.95.88,1.95,1.96-.88,1.95-1.95,1.95-1.96-.88-1.96-1.95"/>
    <path class="cls-16" d="M312.8,177.88c0-1.07.88-1.95,1.95-1.95s1.96.88,1.96,1.95-.88,1.96-1.96,1.96-1.95-.88-1.95-1.96"/>
    <path class="cls-7" d="M312.8,177.88c0-1.07.88-1.95,1.95-1.95s1.96.88,1.96,1.95-.88,1.96-1.96,1.96-1.95-.88-1.95-1.96"/>
    <path class="cls-16" d="M296.4,182.43c0-1.08.88-1.96,1.96-1.96s1.95.88,1.95,1.96-.88,1.95-1.95,1.95-1.96-.88-1.96-1.95"/>
    <path class="cls-7" d="M296.4,182.43c0-1.08.88-1.96,1.96-1.96s1.95.88,1.95,1.96-.88,1.95-1.95,1.95-1.96-.88-1.96-1.95"/>
    <path class="cls-16" d="M300.5,194.65c0-1.07.88-1.95,1.96-1.95s1.95.88,1.95,1.95-.88,1.96-1.95,1.96-1.96-.88-1.96-1.96"/>
    <path class="cls-7" d="M300.5,194.65c0-1.07.88-1.95,1.96-1.95s1.95.88,1.95,1.95-.88,1.96-1.95,1.96-1.96-.88-1.96-1.96"/>
    <path class="cls-16" d="M349.69,198c0-1.08.88-1.96,1.96-1.96s1.95.88,1.95,1.96-.88,1.95-1.95,1.95-1.96-.88-1.96-1.95"/>
    <path class="cls-7" d="M349.69,198c0-1.08.88-1.96,1.96-1.96s1.95.88,1.95,1.96-.88,1.95-1.95,1.95-1.96-.88-1.96-1.95"/>
    <path class="cls-16" d="M303.23,205.42c0-1.08.88-1.96,1.96-1.96s1.95.88,1.95,1.96-.88,1.95-1.95,1.95-1.96-.88-1.96-1.95"/>
    <path class="cls-7" d="M303.23,205.42c0-1.08.88-1.96,1.96-1.96s1.95.88,1.95,1.96-.88,1.95-1.95,1.95-1.96-.88-1.96-1.95"/>
    <path class="cls-16" d="M299.14,213.64c0-1.07.87-1.95,1.95-1.95s1.95.88,1.95,1.95-.87,1.96-1.95,1.96-1.95-.88-1.95-1.96"/>
    <path class="cls-7" d="M299.14,213.64c0-1.07.87-1.95,1.95-1.95s1.95.88,1.95,1.95-.87,1.96-1.95,1.96-1.95-.88-1.95-1.96"/>
    <path class="cls-16" d="M267.71,213.82c0-1.08.88-1.96,1.95-1.96s1.96.88,1.96,1.96-.88,1.95-1.96,1.95-1.95-.88-1.95-1.95"/>
    <path class="cls-7" d="M267.71,213.82c0-1.08.88-1.96,1.95-1.96s1.96.88,1.96,1.96-.88,1.95-1.96,1.95-1.95-.88-1.95-1.95"/>
    <path class="cls-16" d="M277.27,216.69c0-1.08.88-1.96,1.96-1.96s1.95.88,1.95,1.96-.88,1.95-1.95,1.95-1.96-.88-1.96-1.95"/>
    <path class="cls-7" d="M277.27,216.69c0-1.08.88-1.96,1.96-1.96s1.95.88,1.95,1.96-.88,1.95-1.95,1.95-1.96-.88-1.96-1.95"/>
    <path class="cls-16" d="M314.17,225.52c0-1.07.88-1.95,1.95-1.95s1.96.88,1.96,1.95-.88,1.96-1.96,1.96-1.95-.88-1.95-1.96"/>
    <path class="cls-7" d="M314.17,225.52c0-1.07.88-1.95,1.95-1.95s1.96.88,1.96,1.95-.88,1.96-1.96,1.96-1.95-.88-1.95-1.96"/>
    <path class="cls-16" d="M266.34,227.36c0-1.08.88-1.96,1.95-1.96s1.96.88,1.96,1.96-.88,1.95-1.96,1.95-1.95-.88-1.95-1.95"/>
    <path class="cls-7" d="M266.34,227.36c0-1.08.88-1.96,1.95-1.96s1.96.88,1.96,1.96-.88,1.95-1.96,1.95-1.95-.88-1.95-1.95"/>
    <path class="cls-16" d="M448.08,230.19c0-1.08.88-1.95,1.96-1.95s1.95.87,1.95,1.95-.88,1.95-1.95,1.95-1.96-.87-1.96-1.95"/>
    <path class="cls-7" d="M448.08,230.19c0-1.08.88-1.95,1.96-1.95s1.95.87,1.95,1.95-.88,1.95-1.95,1.95-1.96-.87-1.96-1.95"/>
    <polygon class="cls-15" points="264.2 116.75 266.55 118.83 268.9 120.87 271.25 122.87 273.6 124.83 275.96 126.74 278.31 128.59 280.66 130.38 283.01 132.12 285.37 133.78 287.72 135.38 290.07 136.91 292.42 138.36 294.78 139.74 297.13 141.04 299.48 142.26 301.83 143.4 304.19 144.47 306.54 145.46 308.89 146.39 311.24 147.25 313.6 148.04 315.95 148.78 318.3 149.46 320.65 150.09 323.01 150.67 325.36 151.21 327.71 151.71 330.06 152.18 332.42 152.61 334.77 153.02 337.12 153.39 339.47 153.74 341.82 154.07 344.18 154.38 346.53 154.67 348.88 154.94 351.23 155.2 353.59 155.44 355.94 155.67 358.29 155.88 358.29 233.66 355.94 231.31 353.59 228.97 351.23 226.64 348.88 224.33 346.53 222.04 344.18 219.76 341.82 217.5 339.47 215.26 337.12 213.05 334.77 210.85 332.42 208.69 330.06 206.55 327.71 204.45 325.36 202.39 323.01 200.36 320.65 198.38 318.3 196.44 315.95 194.55 313.6 192.72 311.24 190.95 308.89 189.24 306.54 187.6 304.19 186.02 301.83 184.52 299.48 183.1 297.13 181.75 294.78 180.48 292.42 179.29 290.07 178.18 287.72 177.13 285.37 176.17 283.01 175.27 280.66 174.43 278.31 173.66 275.96 172.95 273.6 172.28 271.25 171.67 268.9 171.1 266.55 170.58 264.2 170.09 264.2 116.75"/>
    <polyline class="cls-8" points="264.2 143.42 266.55 144.71 268.9 145.99 271.25 147.27 273.6 148.56 275.96 149.84 278.31 151.12 280.66 152.41 283.01 153.69 285.37 154.98 287.72 156.26 290.07 157.54 292.42 158.83 294.78 160.11 297.13 161.39 299.48 162.68 301.83 163.96 304.19 165.25 306.54 166.53 308.89 167.81 311.24 169.1 313.6 170.38 315.95 171.66 318.3 172.95 320.65 174.23 323.01 175.52 325.36 176.8 327.71 178.08 330.06 179.37 332.42 180.65 334.77 181.93 337.12 183.22 339.47 184.5 341.82 185.79 344.18 187.07 346.53 188.35 348.88 189.64 351.23 190.92 353.59 192.2 355.94 193.49 358.29 194.77 360.64 196.06 363 197.34 365.35 198.62 367.7 199.91 370.05 201.19 372.41 202.47 374.76 203.76 377.11 205.04 379.46 206.33 381.82 207.61 384.17 208.89 386.52 210.18 388.87 211.46 391.23 212.75 393.58 214.03 395.93 215.31 398.28 216.6 400.64 217.88 402.99 219.16 405.34 220.45 407.69 221.73 410.05 223.02 412.4 224.3 414.75 225.58 417.1 226.87 419.45 228.15 421.81 229.43 424.16 230.72 426.51 232 428.86 233.29 431.22 234.57"/>
    <rect class="cls-13" x="243.7" y="26.11" width="150.31" height="219.48"/>
  </g>
  <g class="cls-24">
    <rect class="cls-17" x="72.97" y="8.9" width="150.31" height="17.21"/>
    <rect class="cls-13" x="72.97" y="8.9" width="150.31" height="17.21"/>
    <text class="cls-4" transform="translate(131.87 20.74)"><tspan x="0" y="0">Dialister</tspan></text>
  </g>
  <g class="cls-25">
    <rect class="cls-17" x="243.7" y="8.9" width="150.31" height="17.21"/>
    <rect class="cls-13" x="243.7" y="8.9" width="150.31" height="17.21"/>
    <text class="cls-4" transform="translate(299.09 20.74)"><tspan x="0" y="0">Pr</tspan><tspan class="cls-19" x="9" y="0">e</tspan><tspan class="cls-22" x="13.74" y="0">v</tspan><tspan x="18.01" y="0">otella</tspan></text>
  </g>
  <line class="cls-10" x1="79.8" y1="248.33" x2="79.8" y2="245.59"/>
  <line class="cls-10" x1="113.96" y1="248.33" x2="113.96" y2="245.59"/>
  <line class="cls-10" x1="148.12" y1="248.33" x2="148.12" y2="245.59"/>
  <line class="cls-10" x1="182.28" y1="248.33" x2="182.28" y2="245.59"/>
  <line class="cls-10" x1="216.45" y1="248.33" x2="216.45" y2="245.59"/>
  <text class="cls-3" transform="translate(77.3 256.98)"><tspan x="0" y="0">0</tspan></text>
  <text class="cls-3" transform="translate(108.96 256.98)"><tspan x="0" y="0">25</tspan></text>
  <text class="cls-3" transform="translate(143.12 256.98)"><tspan x="0" y="0">50</tspan></text>
  <text class="cls-3" transform="translate(177.28 256.98)"><tspan x="0" y="0">75</tspan></text>
  <text class="cls-3" transform="translate(208.94 256.98)"><tspan x="0" y="0">100</tspan></text>
  <line class="cls-10" x1="250.53" y1="248.33" x2="250.53" y2="245.59"/>
  <line class="cls-10" x1="284.69" y1="248.33" x2="284.69" y2="245.59"/>
  <line class="cls-10" x1="318.85" y1="248.33" x2="318.85" y2="245.59"/>
  <line class="cls-10" x1="353.02" y1="248.33" x2="353.02" y2="245.59"/>
  <line class="cls-10" x1="387.18" y1="248.33" x2="387.18" y2="245.59"/>
  <text class="cls-3" transform="translate(248.03 256.98)"><tspan x="0" y="0">0</tspan></text>
  <text class="cls-3" transform="translate(279.69 256.98)"><tspan x="0" y="0">25</tspan></text>
  <text class="cls-3" transform="translate(313.85 256.98)"><tspan x="0" y="0">50</tspan></text>
  <text class="cls-3" transform="translate(348.01 256.98)"><tspan x="0" y="0">75</tspan></text>
  <text class="cls-3" transform="translate(379.67 256.98)"><tspan x="0" y="0">100</tspan></text>
  <text class="cls-3" transform="translate(233.76 238.84)"><tspan x="0" y="0">0</tspan></text>
  <text class="cls-3" transform="translate(228.76 174.54)"><tspan x="0" y="0">20</tspan></text>
  <text class="cls-3" transform="translate(228.76 110.23)"><tspan x="0" y="0">40</tspan></text>
  <text class="cls-3" transform="translate(228.76 45.93)"><tspan x="0" y="0">60</tspan></text>
  <line class="cls-10" x1="240.96" y1="235.61" x2="243.7" y2="235.61"/>
  <line class="cls-10" x1="240.96" y1="171.31" x2="243.7" y2="171.31"/>
  <line class="cls-10" x1="240.96" y1="107" x2="243.7" y2="107"/>
  <line class="cls-10" x1="240.96" y1="42.69" x2="243.7" y2="42.69"/>
  <text class="cls-3" transform="translate(63.03 238.84)"><tspan x="0" y="0">0</tspan></text>
  <text class="cls-3" transform="translate(63.03 199.27)"><tspan x="0" y="0">5</tspan></text>
  <text class="cls-3" transform="translate(58.03 159.69)"><tspan x="0" y="0">10</tspan></text>
  <text class="cls-3" transform="translate(58.03 120.12)"><tspan x="0" y="0">15</tspan></text>
  <text class="cls-3" transform="translate(58.03 80.54)"><tspan x="0" y="0">20</tspan></text>
  <text class="cls-3" transform="translate(58.03 40.96)"><tspan x="0" y="0">25</tspan></text>
  <line class="cls-10" x1="70.23" y1="235.61" x2="72.97" y2="235.61"/>
  <line class="cls-10" x1="70.23" y1="196.04" x2="72.97" y2="196.04"/>
  <line class="cls-10" x1="70.23" y1="156.46" x2="72.97" y2="156.46"/>
  <line class="cls-10" x1="70.23" y1="116.88" x2="72.97" y2="116.88"/>
  <line class="cls-10" x1="70.23" y1="77.31" x2="72.97" y2="77.31"/>
  <line class="cls-10" x1="70.23" y1="37.73" x2="72.97" y2="37.73"/>
  <text class="cls-6" transform="translate(156.1 269.6)"><tspan x="0" y="0">Length of </tspan><tspan class="cls-21" x="48.93" y="0">T</tspan><tspan x="54.34" y="0">estosterone The</tspan><tspan class="cls-26" x="133.83" y="0">r</tspan><tspan x="137.39" y="0">a</tspan><tspan class="cls-20" x="143.5" y="0">p</tspan><tspan x="149.29" y="0">y</tspan></text>
  <text class="cls-6" transform="translate(52.87 191.32) rotate(-90)"><tspan x="0" y="0">Ge</tspan><tspan class="cls-26" x="14.67" y="0">n</tspan><tspan x="20.68" y="0">us A</tspan><tspan class="cls-1" x="42.69" y="0">b</tspan><tspan x="48.59" y="0">undance (%)</tspan></text>
  <text class="cls-2" transform="translate(328.99 283.96)"><tspan x="0" y="0">Maaslin2 results</tspan></text>
  <rect class="cls-9" x="39.49" y="3.42" width="360" height="288"/>
  <text class="cls-5" transform="translate(167.19 46.1)"><tspan x="0" y="0">coef = -1.21</tspan><tspan x="11.11" y="12">p = 0.004</tspan></text>
  <text class="cls-5" transform="translate(337.92 46.1)"><tspan x="0" y="0">coef = -0.64</tspan><tspan x="11.11" y="12">p = 0.030</tspan></text>
</svg>